<?xml version="1.0" encoding="UTF-8"?><svg id="Livello_2" xmlns="http://www.w3.org/2000/svg" viewBox="0 0 56.71 59.65"><defs><style>.cls-1{fill:#ff8300;}.cls-1,.cls-2{stroke-width:0px;}.cls-2{fill:#ff8200;}</style></defs><g id="Livello_1-2"><path class="cls-2" d="M0,59.65v-7.95s0-7.95,7.95-7.95h7.95v7.95s0,7.95-7.95,7.95H0Z"/><path class="cls-2" d="M7.96,19.89C0,19.89,0,23.86,0,23.86v-11.93S0,3.98,7.95,3.98h35.78c11.69,0,11.94-3.98,11.94-3.98,3.97,15.9-3.98,19.89-15.91,19.89H7.96Z"/><path class="cls-2" d="M7.96,39.77C0,39.77,0,43.74,0,43.74v-11.93S0,23.86,7.95,23.86h27.84v3.98s0,11.93-11.93,11.93H7.96Z"/><path class="cls-1" d="M0,59.65v-7.95s0-7.95,7.95-7.95h7.95v7.95s0,7.95-7.95,7.95H0Z"/><path class="cls-1" d="M7.96,19.89C0,19.89,0,23.86,0,23.86v-11.93S0,3.98,7.95,3.98h35.78c11.69,0,11.94-3.98,11.94-3.98,3.97,15.9-3.98,19.89-15.91,19.89H7.96Z"/><path class="cls-1" d="M7.96,39.77C0,39.77,0,43.74,0,43.74v-11.93S0,23.86,7.95,23.86h27.84v3.98s0,11.93-11.93,11.93H7.96Z"/></g></svg>