<svg version="1.1" id="Livello_1" xmlns="http://www.w3.org/2000/svg" x="0" y="0" viewBox="0 0 218.7 45" style="enable-background:new 0 0 218.7 45" xml:space="preserve"><style>.st0{fill:#ff8200}.st1{fill:#4d575e}.st2{fill:#4c565e}</style><g id="Livello_1-2"><path class="st0" d="M0 41.2v-5.5s0-5.5 5.5-5.5H11v5.5s0 5.5-5.5 5.5H0zM5.5 13.7C0 13.7 0 16.5 0 16.5V8.2s0-5.5 5.5-5.5h24.7c8.1 0 8.2-2.7 8.2-2.7 2.7 11-2.7 13.7-11 13.7H5.5zM5.5 27.5C0 27.5 0 30.2 0 30.2V22s0-5.5 5.5-5.5h19.2v2.7s0 8.2-8.2 8.2l-11 .1z"/><path class="st1" d="M60.4 32.8c.1-.4.3-.7.5-1.1.2-.3.5-.6.8-.8.3-.2.7-.3 1.1-.3s.7.1.9.3.3.5.3.8-.1.5-.3.7-.4.4-.7.6-.6.3-.9.4c-.3.1-.6.2-.8.3 0 .5.1 1.1.1 1.7 0 .6.1 1.3.3 1.9l.2.9c.3-.5.5-.9.7-1.4.2-.4.5-.8.7-1.1s.5-.5.8-.7c.3-.2.6-.3 1-.3s.7.1 1 .3.4.4.4.7c0 .2-.1.4-.2.5s-.3.2-.5.2c-.4 0-.5-.2-.5-.5V35.3c0-.1 0-.2-.1-.3s-.2-.1-.4-.1-.5.1-.8.3c-.3.2-.6.5-.9 1l-.3.6-.3.6-.3.6c-.1.2-.2.3-.2.4 0 .2.1.5.2.7.1.3.2.5.3.7.1.1.1.2.2.3l.3.3c.1.1.2.2.4.2.1.1.3.1.5.1.3 0 .5-.1.7-.2.2-.1.4-.3.6-.5s.3-.4.4-.7.2-.5.3-.7c.1-.2.2-.4.2-.6s.1-.3.1-.4h.2s-.1.2-.1.4-.1.4-.2.6c-.1.2-.2.5-.3.7-.1.3-.3.5-.5.7s-.4.4-.7.5c-.3.4-.6.5-.9.5s-.5 0-.8-.1c-.2-.1-.5-.2-.7-.3s-.4-.3-.6-.5c-.2-.2-.3-.4-.5-.5l-.1.2c-.3.4-.6.6-.9.9-.3.2-.8.3-1.3.3-.3 0-.6-.1-1-.2s-.7-.3-1-.5-.5-.5-.7-.9-.3-.8-.3-1.4c0-.5.1-1 .3-1.4s.4-.8.7-1.2c.3-.3.6-.6 1-.9.4-.3.8-.4 1.2-.6l1-.3c.1-.2.2-.5.4-.8zm-2.1 2c-.3.2-.5.4-.6.6-.2.2-.3.5-.3.7-.1.3-.1.5-.1.8v.6c0 .3 0 .5.1.8 0 .3.1.6.2.9.1.3.2.6.3.8s.3.4.5.6c.2.1.4.2.7.2s.5-.1.7-.2.4-.2.6-.4c.2-.1.3-.3.4-.5.1-.2.2-.3.3-.4-.2-.4-.4-.7-.6-1.1-.1-.4-.3-.7-.3-1.1-.1-.4-.1-.7-.2-1v-1.6c0-.3 0-.5.1-.8l-.9.3c-.3.4-.7.6-.9.8zM62 31c-.2.2-.3.4-.4.6-.1.3-.2.5-.2.9 0 .3-.1.6-.1 1 .2-.1.4-.1.7-.3s.5-.3.8-.4c.3-.2.5-.4.7-.5.2-.2.3-.4.3-.7s-.1-.4-.3-.6-.4-.2-.7-.2c-.4-.1-.7 0-.8.2zM73.8 30.9l.1-.2h3.7c.6 0 1.1.1 1.6.2s.8.3 1.2.6c.3.2.5.5.7.8s.2.6.2 1c0 .5-.2 1-.5 1.4s-.7.7-1.2 1-1 .5-1.6.6-1.2.2-1.7.2h-.7c-.3 0-.5-.1-.7-.1l-1.6 4.2H75l-.1.2h-4.7l.1-.2h1.6l3.7-9.8c0 .1-1.8.1-1.8.1zm1.7 5.4h.7c.5 0 1-.1 1.5-.3s.8-.5 1.2-.8c.3-.3.6-.7.7-1.2.2-.4.3-.9.3-1.3 0-.6-.2-1.1-.6-1.4s-1-.5-1.7-.5H77l-2.1 5.4c.2.1.4.1.6.1zM85.3 39.8c-.1.2-.1.4-.1.6 0 .3.1.4.4.4.2 0 .4-.1.5-.2.2-.1.3-.2.4-.4.1-.1.2-.3.3-.4.1-.1.1-.2.2-.3l.2.1c-.1.1-.1.2-.2.4s-.2.3-.4.5c-.2.1-.4.3-.6.4-.2.1-.5.1-.8.1-.7 0-1-.3-1-.9v-.4c0-.2.1-.3.1-.5-.1.2-.3.3-.5.5s-.4.4-.6.5c-.2.2-.5.3-.8.4-.2.4-.5.4-.8.4-.2 0-.4 0-.6-.1s-.4-.2-.5-.3c-.2-.1-.3-.3-.4-.6-.1-.2-.1-.5-.1-.8 0-.4.1-.8.2-1.1.2-.4.4-.7.6-1.1.3-.4.6-.7.9-1s.7-.5 1-.8c.4-.2.7-.4 1-.5s.6-.2.9-.2.6.1.8.2c.2.2.3.4.3.6l.3-.7h1.1L85.5 39c-.1.3-.2.5-.2.8zm.3-3.8c0-.1.1-.2.1-.3v-.3c0-.1-.1-.2-.1-.3-.1-.1-.2-.2-.3-.2-.1-.1-.3-.1-.5-.1-.3 0-.7.1-1 .3s-.6.4-.9.7-.5.6-.8 1c-.2.4-.4.7-.6 1.1-.2.4-.3.7-.4 1.1s-.1.5-.1.8.1.5.2.7.3.3.6.3.6-.1.9-.3.6-.4.8-.6c.3-.2.5-.5.7-.7s.3-.4.4-.6l.8-2.1c.1-.2.2-.4.2-.5zM90.1 35.7c.1-.3.2-.5.2-.8H89l.1-.2h2.3c-.1.2-.1.5-.2.8l-.3.9c.1-.1.2-.3.4-.5s.3-.4.5-.6c.2-.2.4-.3.6-.5.2-.1.5-.2.7-.2.4 0 .7.1.9.3s.3.4.3.6c0 .2 0 .3-.1.4-.1.1-.1.2-.2.2s-.2.1-.3.1h-.3c-.1 0-.3 0-.4-.1v-.2c0-.1 0-.2.1-.2 0-.1.1-.1.1-.2.1 0 .1-.1.1-.2s.1-.1.1-.2 0-.2-.1-.2c-.1-.1-.2-.1-.3-.1-.2 0-.4.1-.7.3s-.5.4-.8.7-.5.6-.7 1-.4.7-.5 1.1l-1.1 2.9h-1.1l1.6-4.4c.1-.2.2-.4.4-.7zM97.9 33.3l-.5 1.4H99v.2h-1.7l-1.7 4.5c-.1.1-.1.3-.2.4-.1.2-.1.3-.1.5s0 .3.1.3c.1.1.2.1.4.1s.4-.1.5-.2.3-.2.5-.4c.1-.1.2-.3.3-.4.1-.1.2-.3.2-.3l.2.1c0 .1-.1.2-.2.4s-.2.3-.4.5-.4.3-.6.4c-.1.2-.4.2-.7.2-.4 0-.7-.1-.9-.3-.2-.2-.3-.4-.3-.6 0-.2 0-.4.1-.6.1-.2.2-.5.2-.7l1.5-3.9h-1.4l.1-.2h1.4l.5-1.4h1.1zM99.4 34.9l.1-.2h2.4l-.6 1.8c1-1.2 1.9-1.8 2.8-1.8.4 0 .8.1 1 .3s.4.5.4.8c0 .2 0 .3-.1.5s-.1.4-.2.6l-1 2.6c-.1.2-.1.3-.2.5s-.1.3-.1.5c0 .1 0 .2.1.3s.2.1.3.1c.2 0 .4 0 .5-.1.2-.1.3-.2.4-.3s.2-.3.3-.4c.1-.2.2-.3.2-.4l.2.1c-.1.1-.1.2-.2.4s-.2.3-.4.5-.3.3-.5.4c-.2.1-.5.2-.8.2s-.6-.1-.8-.2c-.2-.1-.3-.4-.3-.7 0-.1 0-.3.1-.4s.1-.3.1-.4l1.3-3.4c.1-.2.1-.4.1-.6 0-.1 0-.2-.1-.4-.1-.1-.2-.2-.5-.2s-.5.1-.8.2l-.9.6c-.3.3-.6.6-.8 1-.3.4-.5.8-.6 1.2l-1.2 3h-1.1l2.2-5.9-1.3-.2zM111.6 39.8c-.1.2-.3.4-.5.5-.2.2-.5.3-.8.5-.3.1-.7.2-1.1.2s-.8-.1-1.1-.2c-.3-.1-.5-.3-.7-.5s-.3-.4-.4-.7-.1-.5-.1-.7c0-.5.1-1 .4-1.5s.6-1 1-1.4.9-.8 1.4-1.1 1-.4 1.6-.4c.2 0 .4 0 .6.1.2 0 .4.1.5.2.2.1.3.2.4.3s.2.3.2.5c0 .3-.1.5-.2.7-.2.2-.3.4-.6.5s-.5.3-.8.4c-.3.1-.5.2-.8.2s-.5.1-.7.1h-1.4l-.3.9c-.1.3-.1.6-.1.9 0 .5.1.9.4 1.2s.6.4 1.1.4c.3 0 .6-.1.9-.2.3-.1.5-.3.7-.4.2-.2.4-.3.4-.5l.4-.4.2.1c-.4 0-.5.2-.6.3zm0-4.9c-.1-.1-.3-.2-.6-.2s-.6.1-.9.3-.5.4-.8.6-.4.5-.6.8-.3.6-.4.8c.2 0 .5.1.8.1.4 0 .7-.1 1-.2.3-.1.6-.2.9-.4s.5-.4.6-.6c.2-.2.2-.5.2-.7 0-.2 0-.3-.2-.5zM115.2 35.7c.1-.3.2-.5.2-.8h-1.3l.1-.2h2.3c-.1.2-.1.5-.2.8l-.3.9c.1-.1.2-.3.4-.5s.3-.4.5-.6c.2-.2.4-.3.6-.5s.5-.2.7-.2c.4 0 .7.1.9.3.2.2.3.4.3.6 0 .2 0 .3-.1.4s-.1.2-.2.2c-.1.1-.2.1-.3.1h-.3c-.1 0-.3 0-.4-.1s-.1-.2-.1-.3 0-.2.1-.2c0-.1.1-.1.1-.2.1 0 .1-.1.1-.2s.1-.1.1-.2 0-.2-.1-.2c-.1-.1-.2-.1-.3-.1-.2 0-.4.1-.7.3s-.5.4-.8.7-.5.6-.7 1-.4.7-.5 1.1l-1.1 2.9h-1.1l1.6-4.4c.2-.1.3-.3.5-.6zM120.5 37.1c-.1-.2-.2-.4-.2-.7 0-.2.1-.4.2-.7.1-.2.3-.4.5-.6s.5-.3.8-.5c.3-.1.6-.2 1-.2s.8.1 1 .3c.3.2.4.4.4.7 0 .4-.2.6-.6.6-.1 0-.3 0-.4-.1s-.2-.2-.2-.3 0-.2.1-.3.1-.1.1-.2c0-.3-.2-.4-.5-.4-.2 0-.5 0-.6.1-.2.1-.3.2-.5.3-.1.1-.2.2-.3.4-.1.1-.1.3-.1.4 0 .2.1.4.2.5.1.2.2.4.4.6l.9 1.1c.1.1.2.3.3.5 0 .2.1.3.1.5 0 .3-.1.6-.3.8-.2.2-.4.5-.6.6-.3.2-.5.3-.8.4-.3.1-.6.1-.8.1-.2 0-.5 0-.7-.1-.2 0-.4-.1-.6-.2-.2-.1-.3-.2-.4-.3s-.2-.3-.2-.5.1-.4.2-.5.3-.2.6-.2c.1 0 .2 0 .3.1.1.1.1.1.1.2s0 .2-.1.3-.1.2-.1.3c0 .2.1.4.2.5.2.1.4.1.6.1s.5 0 .7-.1.4-.2.5-.3.2-.2.3-.4c.1-.1.1-.3.1-.4 0-.2 0-.4-.1-.5-.1-.2-.2-.3-.3-.5l-.8-.9c-.2-.1-.3-.3-.4-.5zM135.8 40.7l3.8-9.8-7.4 10 .2-10-3.7 9.8h1.7l-.1.2h-3.5l.1-.2h1.6l3.7-9.8h-1.8l.1-.2h3.3l-.2 7.9 5.9-7.9h3.2l-.1.2H141l-3.7 9.8h1.7l-.1.2h-4.7l.1-.2h1.5zM146.4 39.8c-.1.2-.1.4-.1.6 0 .3.1.4.4.4.2 0 .4-.1.5-.2.2-.1.3-.2.4-.4.1-.1.2-.3.3-.4.1-.1.1-.2.2-.3l.2.1c-.1.1-.1.2-.2.4s-.2.3-.4.5c-.2.1-.4.3-.6.4-.2.1-.5.2-.7.2-.7 0-1-.3-1-.9v-.4c0-.2.1-.3.1-.5-.1.2-.3.3-.5.5s-.4.4-.6.5c-.2.2-.5.3-.8.4-.3.1-.6.2-.9.2-.2 0-.4 0-.6-.1-.2-.1-.4-.2-.5-.3-.2-.1-.3-.3-.4-.6-.1-.2-.1-.5-.1-.8 0-.4.1-.8.2-1.1.2-.4.4-.7.6-1.1.3-.4.6-.7.9-1 .3-.3.7-.5 1-.8.4-.2.7-.4 1-.5s.6-.2.9-.2c.3 0 .6.1.8.2.2.2.3.4.3.6l.3-.7h1.1l-1.7 4.3c0 .5 0 .7-.1 1zm.4-3.8c0-.1.1-.2.1-.3v-.3c0-.1-.1-.2-.1-.3-.1-.1-.2-.2-.3-.2-.1-.1-.3-.1-.5-.1-.3 0-.7.1-1 .3s-.6.4-.9.7c-.3.3-.5.6-.8 1-.2.4-.4.7-.6 1.1-.2.4-.3.7-.4 1.1s-.1.7-.1.9c0 .3.1.5.2.7.1.2.3.3.6.3s.6-.1.9-.3.6-.4.8-.6c.3-.2.5-.5.7-.7s.3-.4.4-.6l.8-2.1c0-.3.1-.5.2-.6zM150 34.9l.1-.2h2.4l-.6 1.8c1-1.2 1.9-1.8 2.8-1.8.4 0 .8.1 1 .3s.4.5.4.8c0 .2 0 .3-.1.5s-.1.4-.2.6l-1 2.6c-.1.2-.1.3-.2.5s-.1.3-.1.5c0 .1 0 .2.1.3s.2.1.3.1c.2 0 .4 0 .5-.1.2-.1.3-.2.4-.3s.2-.3.3-.4c.1-.2.2-.3.2-.4l.2.1c-.1.1-.1.2-.2.4s-.2.3-.4.5-.3.3-.5.4c-.2.1-.5.2-.8.2s-.6-.1-.8-.2c-.2-.1-.3-.4-.3-.7 0-.1 0-.3.1-.4 0-.1.1-.3.1-.4l1.3-3.4c.1-.2.1-.4.1-.6 0-.1 0-.2-.1-.4-.1-.1-.2-.2-.5-.2-.2 0-.5.1-.8.2l-.9.6c-.3.3-.6.6-.8 1-.3.4-.5.8-.6 1.2l-1.2 3h-1.1l2.2-5.9-1.3-.2zM162.7 39.8c-.1.2-.1.4-.1.6 0 .3.1.4.4.4.2 0 .4-.1.5-.2.2-.1.3-.2.4-.4.1-.1.2-.3.3-.4.1-.1.1-.2.2-.3l.2.1c-.1.1-.1.2-.2.4s-.2.3-.4.5c-.2.1-.4.3-.6.4-.2.1-.5.2-.7.2-.7 0-1-.3-1-.9v-.4c0-.2.1-.3.1-.5-.1.2-.3.3-.5.5s-.4.4-.6.5c-.2.2-.5.3-.8.4-.3.1-.6.2-.9.2-.2 0-.4 0-.6-.1-.2-.1-.4-.2-.5-.3-.2-.1-.3-.3-.4-.6-.1-.2-.1-.5-.1-.8 0-.4.1-.8.2-1.1.2-.4.4-.7.6-1.1.3-.4.6-.7.9-1 .3-.3.7-.5 1-.8.4-.2.7-.4 1-.5s.6-.2.9-.2c.3 0 .6.1.8.2.2.2.3.4.3.6l.3-.7h1.1l-1.7 4.3c0 .5-.1.7-.1 1zm.3-3.8c0-.1.1-.2.1-.3v-.3c0-.1-.1-.2-.1-.3-.1-.1-.2-.2-.3-.2-.1-.1-.3-.1-.5-.1-.3 0-.7.1-1 .3s-.6.4-.9.7c-.3.3-.5.6-.8 1-.2.4-.4.7-.6 1.1s-.3.7-.4 1.1-.1.7-.1.9c0 .3.1.5.2.7.1.2.3.3.6.3s.6-.1.9-.3c.3-.2.6-.4.8-.6.3-.2.5-.5.7-.7s.3-.4.4-.6l.8-2.1c.1-.3.2-.5.2-.6zM170.5 40.7c.4.2.6.6.6 1.2 0 .3-.1.7-.3 1-.2.4-.4.7-.7 1s-.7.6-1.2.8-1 .3-1.6.3c-.4 0-.8-.1-1.1-.2s-.7-.2-.9-.4-.5-.4-.6-.6c-.2-.2-.2-.4-.2-.7 0-.2.1-.4.2-.6.1-.2.3-.4.4-.5.2-.2.3-.3.5-.4.2-.1.3-.2.5-.3l.4-.2c-.1 0-.2-.1-.4-.1-.1 0-.3-.1-.4-.2l-.3-.3c-.1-.1-.1-.3-.1-.5 0-.3.1-.6.2-.8.2-.2.4-.5.8-.6l.6-.3c-.1-.1-.2-.3-.3-.5s-.1-.4-.1-.6c0-.3.1-.7.3-1s.4-.6.7-.8.6-.4 1-.6.7-.2 1.1-.2c.3 0 .5 0 .7.1s.4.1.5.2c.2.1.3.2.4.3.1.1.2.2.2.3.1-.2.3-.3.5-.5s.4-.3.7-.3.5.1.7.3.3.4.3.6c0 .2-.1.3-.2.4-.1.1-.3.2-.5.2-.1 0-.3 0-.4-.1-.1-.1-.1-.2-.1-.3v-.2l.1-.1.1-.1v-.2c0-.1 0-.1-.1-.2 0 0-.1-.1-.2-.1-.2 0-.3.1-.5.2s-.3.3-.4.5c.1.1.1.2.2.3 0 .1.1.3.1.4 0 .3-.1.6-.3.9-.2.3-.4.6-.7.8s-.6.4-1 .6c-.4.2-.7.2-1 .2-.5 0-.8-.1-1.1-.2-.3-.1-.4-.2-.6-.3l-.3.1c-.3.1-.6.3-.7.5-.2.2-.3.4-.3.5 0 .2.1.4.3.5s.6.2 1.1.2l2 .1c.6.2 1.1.3 1.4.5zm-4.9 1.5c-.1.3-.2.6-.2 1 0 .3.1.6.2.8s.3.4.4.5l.6.3c.2.1.5.1.7.1.4 0 .9-.1 1.3-.2s.7-.3 1-.5.5-.5.7-.8.3-.6.3-.9c0-.2 0-.3-.1-.4-.1-.1-.2-.3-.3-.4-.1-.1-.3-.2-.5-.3s-.5-.1-.8-.1l-2.2-.1-.4.3c-.4.2-.6.4-.7.7zm2.2-3.8c.2.2.5.3.9.3.3 0 .6-.1.9-.3.2-.2.5-.4.6-.7.2-.3.3-.6.4-.9.1-.3.1-.6.1-.9 0-.4-.1-.7-.4-.9-.2-.2-.5-.2-.8-.2s-.6.1-.8.3c-.3.2-.5.4-.6.7-.2.3-.3.6-.4.9-.1.3-.1.6-.1.8-.2.5-.1.8.2.9zM178.1 39.8c-.1.2-.3.4-.5.5-.2.2-.5.3-.8.5-.3.1-.7.2-1.1.2s-.8-.1-1.1-.2c-.3-.1-.5-.3-.7-.5s-.3-.4-.4-.7c-.1-.3-.1-.5-.1-.7 0-.5.1-1 .4-1.5.3-.5.6-1 1-1.4s.9-.8 1.4-1.1 1-.4 1.6-.4c.2 0 .4 0 .6.1.2 0 .4.1.5.2.2.1.3.2.4.3s.2.3.2.5c0 .3-.1.5-.2.7-.2.2-.3.4-.6.5-.2.1-.5.3-.8.4-.3.1-.5.2-.8.2s-.5.1-.7.1H175l-.3.9c-.1.3-.1.6-.1.9 0 .5.1.9.4 1.2s.6.4 1.1.4c.3 0 .6-.1.9-.2.3-.1.5-.3.7-.4.2-.2.4-.3.4-.5l.4-.4.2.1c-.3 0-.5.2-.6.3zm.1-4.9c-.1-.1-.3-.2-.6-.2s-.6.1-.9.3c-.3.2-.5.4-.8.6s-.4.5-.6.8c-.2.3-.3.6-.4.8.2 0 .5.1.8.1.4 0 .7-.1 1-.2.3-.1.6-.2.9-.4.3-.2.5-.4.6-.6.2-.2.2-.5.2-.7 0-.2-.1-.3-.2-.5zM180.4 34.9l.1-.2h2.4l-.6 1.6c.1-.2.3-.3.5-.5l.6-.6c.2-.2.5-.3.7-.4.3-.1.5-.2.8-.2.4 0 .7.1.9.3s.3.5.3.8c0 .2 0 .4-.1.5.1-.1.2-.3.4-.5s.4-.4.6-.5c.2-.2.5-.3.7-.4.3-.1.5-.2.8-.2.4 0 .8.1 1 .3.3.2.4.5.4.8 0 .2 0 .3-.1.5s-.1.4-.2.6l-1 2.6c-.1.2-.1.3-.2.5s-.1.3-.1.5c0 .1 0 .2.1.3s.2.1.3.1c.2 0 .4 0 .5-.1.2-.1.3-.2.4-.3.1-.1.2-.3.3-.4.1-.2.2-.3.2-.4l.2.1c-.1.1-.1.2-.2.4s-.2.3-.4.5-.3.3-.5.4c-.2.1-.5.2-.8.2s-.6-.1-.8-.2c-.2-.1-.3-.4-.3-.7v-.4c0-.1.1-.3.2-.5l1.3-3.4c.1-.2.1-.4.1-.6 0-.2 0-.3-.1-.4-.1-.1-.2-.1-.5-.1-.2 0-.5.1-.7.2-.3.2-.5.4-.8.7s-.5.6-.8 1c-.2.4-.5.8-.6 1.2l-1.2 3h-1.1l1.8-4.6c.1-.4.2-.7.2-.8 0-.2 0-.3-.1-.4-.1-.1-.2-.2-.4-.2s-.4.1-.7.2-.5.3-.8.6-.6.6-.8.9c-.3.4-.5.8-.7 1.3l-1.2 3h-1.1l2.2-5.9-1.1-.2zM196.1 39.8c-.1.2-.3.4-.5.5-.2.2-.5.3-.8.5-.3.1-.7.2-1.1.2s-.8-.1-1.1-.2c-.3-.1-.5-.3-.7-.5s-.3-.4-.4-.7-.1-.5-.1-.7c0-.5.1-1 .4-1.5.3-.5.6-1 1-1.4s.9-.8 1.4-1.1 1-.4 1.6-.4c.2 0 .4 0 .6.1.2 0 .4.1.5.2.2.1.3.2.4.3.1.1.2.3.2.5 0 .3-.1.5-.2.7-.2.2-.3.4-.6.5s-.5.3-.8.4c-.3.1-.5.2-.8.2-.3.1-.5.1-.7.1H193l-.3.9c-.1.3-.1.6-.1.9 0 .5.1.9.4 1.2.3.3.6.4 1.1.4.3 0 .6-.1.9-.2.3-.1.5-.3.7-.4.2-.2.4-.3.4-.5l.4-.4.2.1c-.4 0-.5.2-.6.3zm0-4.9c-.1-.1-.3-.2-.6-.2s-.6.1-.9.3c-.3.2-.5.4-.8.6-.2.3-.4.5-.6.8-.2.3-.3.6-.4.8.2 0 .5.1.8.1.4 0 .7-.1 1-.2.3-.1.6-.2.9-.4.3-.2.5-.4.6-.6.2-.2.2-.5.2-.7 0-.2-.1-.3-.2-.5zM198.4 34.9l.1-.2h2.4l-.6 1.8c1-1.2 1.9-1.8 2.8-1.8.4 0 .8.1 1 .3.3.2.4.5.4.8 0 .2 0 .3-.1.5s-.1.4-.2.6l-1 2.6c-.1.2-.1.3-.2.5s-.1.3-.1.5c0 .1 0 .2.1.3s.2.1.3.1c.2 0 .4 0 .5-.1.2-.1.3-.2.4-.3.1-.1.2-.3.3-.4.1-.2.2-.3.2-.4l.2.1c-.1.1-.1.2-.2.4s-.2.3-.4.5-.3.3-.5.4c-.2.1-.5.2-.8.2s-.6-.1-.8-.2-.3-.4-.3-.7c0-.1 0-.3.1-.4 0-.1.1-.3.1-.4l1.3-3.4c.1-.2.1-.4.1-.6 0-.1 0-.2-.1-.4-.1-.1-.2-.2-.5-.2-.2 0-.5.1-.8.2l-.9.6c-.3.3-.6.6-.8 1-.3.4-.5.8-.6 1.2l-1.2 3h-1.1l2.2-5.9-1.3-.2zM209.5 33.3l-.5 1.4h1.7l-.1.2h-1.7l-1.7 4.5c-.1.1-.1.3-.2.4-.1.2-.1.3-.1.5s0 .3.1.3c.1.1.2.1.4.1s.4-.1.5-.2c.2-.1.3-.2.5-.4.1-.1.2-.3.3-.4.1-.1.2-.3.2-.3l.2.1c0 .1-.1.2-.2.4s-.2.3-.4.5-.4.3-.6.4c-.2.1-.5.2-.8.2-.4 0-.7-.1-.9-.3s-.3-.4-.3-.6c0-.2 0-.4.1-.6.1-.2.2-.5.2-.7l1.5-3.9h-1.4l.1-.2h1.4l.5-1.4h1.2z"/><path class="st2" d="M68.8 2.6H53.6v23.1h2.2V15.1h9.6V13h-9.6V4.5H69V2.6zM90.7 25.4l-6.8-9.5c2.8-.5 5.9-2.5 5.9-6.6s-3.1-6.7-8.5-6.7h-9v23.1h2.3v-9.5h7l6.7 9.4v.1H91l-.3-.3zM74.5 4.5h6.7c4.2 0 6.3 1.6 6.3 4.8s-2.1 4.8-6.3 4.8h-6.7V4.5zM116.7 25.4 106.6 2.7v-.1h-2.1v.1c-1.8 3.9-3.5 7.8-5.2 11.7-1.6 3.6-3.3 7.4-5 11.1l-.1.2h2.4v-.1l3.1-7.1h11.6c.5 1.1.9 2.1 1.4 3.2.6 1.3 1.2 2.6 1.7 3.9v.1h2.4l-.1-.3zm-16.1-9 4.9-11.2 4.9 11.2h-9.8zM143 2.6h-2.2l-9.2 12.2-9.2-12.2H120.1v23.1h2.2V6.1l9.2 11.9.1.2.1-.2 9.2-11.9V25.7H143.2V2.6zM194.2 2.6h-2.1v19.8L176.6 2.6H174.1v23.1H176.4V5.8l15.5 19.8.1.1H194.3V2.6zM218.6 2.6h-20.3v2h9.1V25.7H209.7V4.6h9v-2zM158.6 2.6c-6.4 0-11.5 5.2-11.5 11.5s5.2 11.5 11.5 11.5 11.5-5.2 11.5-11.5S165 2.6 158.6 2.6m0 20.8c-5.1 0-9.3-4.2-9.3-9.3s4.2-9.3 9.3-9.3 9.3 4.2 9.3 9.3-4.1 9.3-9.3 9.3"/></g></svg>